<svg width="23" height="22" viewBox="0 0 23 22" fill="none" xmlns="http://www.w3.org/2000/svg">
<path fill-rule="evenodd" clip-rule="evenodd" d="M12.3194 10.44H10.6858C10.359 10.44 10.0455 10.3101 9.81435 10.079C9.58322 9.84783 9.45336 9.53438 9.45336 9.2075C9.45336 8.88062 9.58322 8.56712 9.81435 8.33598C10.0455 8.10484 10.359 7.97496 10.6858 7.97496H13.5694C13.7179 7.97496 13.8603 7.91598 13.9653 7.81096C14.0703 7.70594 14.1294 7.56348 14.1294 7.41496C14.1294 7.26644 14.0703 7.12405 13.9653 7.01903C13.8603 6.91401 13.7179 6.85497 13.5694 6.85497H12.0694V5.705C12.065 5.55892 12.0039 5.42026 11.899 5.31847C11.7942 5.21668 11.6538 5.15977 11.5076 5.15977C11.3615 5.15977 11.221 5.21668 11.1162 5.31847C11.0113 5.42026 10.9502 5.55892 10.9459 5.705V6.85497H10.6883C10.0644 6.85497 9.46607 7.10281 9.02489 7.54399C8.58372 7.98517 8.33587 8.58358 8.33587 9.2075C8.33587 9.83143 8.58372 10.4298 9.02489 10.871C9.46607 11.3121 10.0644 11.56 10.6883 11.56H12.3219C12.6487 11.56 12.9622 11.6899 13.1934 11.921C13.4245 12.1521 13.5543 12.4656 13.5543 12.7925C13.5543 13.1193 13.4245 13.4328 13.1934 13.664C12.9622 13.8951 12.6487 14.025 12.3219 14.025H9.38686C9.23834 14.025 9.09589 14.084 8.99087 14.189C8.88585 14.294 8.82687 14.4365 8.82687 14.585C8.82687 14.7335 8.88585 14.8759 8.99087 14.9809C9.09589 15.086 9.23834 15.145 9.38686 15.145H10.9414V16.315C10.9414 16.4639 11.0005 16.6067 11.1058 16.712C11.2111 16.8173 11.3539 16.8765 11.5029 16.8765C11.6518 16.8765 11.7946 16.8173 11.8999 16.712C12.0052 16.6067 12.0644 16.4639 12.0644 16.315V15.145H12.3498C12.6588 15.143 12.9643 15.0801 13.249 14.9601C13.5336 14.84 13.7918 14.665 14.0089 14.4452C14.2259 14.2253 14.3975 13.9648 14.5139 13.6786C14.6303 13.3924 14.6891 13.0861 14.6871 12.7772C14.6851 12.4683 14.6223 12.1628 14.5022 11.8782C14.3821 11.5935 14.2072 11.3352 13.9873 11.1182C13.7674 10.9012 13.507 10.7296 13.2208 10.6132C12.9346 10.4968 12.6283 10.438 12.3194 10.44ZM19.2799 3.21996C17.4798 1.41824 15.1106 0.296524 12.5761 0.0458831C10.0416 -0.204757 7.49866 0.431208 5.38055 1.84544C3.26243 3.25968 1.70025 5.36464 0.960243 7.80162C0.220237 10.2386 0.348186 12.8568 1.32229 15.21C2.29639 17.5632 4.05638 19.5058 6.3023 20.7068C8.54822 21.9077 11.1411 22.2928 13.6391 21.7962C16.137 21.2996 18.3855 19.9522 20.0014 17.9835C21.6172 16.0149 22.5003 13.5468 22.5004 11C22.5053 9.55457 22.2231 8.12256 21.6703 6.78703C21.1174 5.45151 20.3049 4.23901 19.2799 3.21996ZM11.5004 20.875C9.54733 20.8747 7.63826 20.2953 6.01452 19.21C4.39078 18.1247 3.12531 16.5824 2.37812 14.7779C1.63093 12.9735 1.43558 10.988 1.81678 9.07256C2.19798 7.15709 3.1386 5.39766 4.51971 4.01677C5.90081 2.63588 7.66037 1.69553 9.57589 1.31462C11.4914 0.933713 13.4769 1.12936 15.2812 1.87682C17.0855 2.62428 18.6277 3.89 19.7127 5.5139C20.7977 7.1378 21.3769 9.04696 21.3769 11C21.3734 13.6182 20.3317 16.1282 18.4802 17.9794C16.6287 19.8306 14.1186 20.8719 11.5004 20.875Z" fill="#546076"/>
</svg>
