<svg width="23" height="19" viewBox="0 0 23 19" fill="none" xmlns="http://www.w3.org/2000/svg">
<path fill-rule="evenodd" clip-rule="evenodd" d="M2.8675 4.65015C3.32537 4.64188 3.77061 4.4986 4.14737 4.23829C4.52414 3.97798 4.81566 3.61223 4.98539 3.1869C5.15511 2.76157 5.19547 2.2956 5.10142 1.84742C5.00737 1.39924 4.78309 0.98877 4.4567 0.66755C4.13031 0.34633 3.71634 0.128642 3.26671 0.0417564C2.81709 -0.0451292 2.35182 0.00265488 1.92925 0.179147C1.50668 0.355638 1.14563 0.652948 0.891368 1.03382C0.637109 1.4147 0.500962 1.86219 0.500001 2.32014C0.505285 2.94297 0.757609 3.53821 1.20153 3.97511C1.64546 4.412 2.24467 4.65482 2.8675 4.65015ZM2.8675 1.08015C3.11225 1.08497 3.35012 1.16198 3.55125 1.30152C3.75238 1.44106 3.90781 1.63689 3.99803 1.86445C4.08826 2.09201 4.10924 2.34118 4.05837 2.58064C4.00749 2.82009 3.88702 3.03917 3.71207 3.2104C3.53712 3.38162 3.31549 3.49733 3.07499 3.54304C2.8345 3.58874 2.58587 3.56239 2.3603 3.46729C2.13473 3.37219 1.94228 3.21258 1.80711 3.00849C1.67193 2.8044 1.60006 2.56493 1.6005 2.32014C1.60472 1.98789 1.74042 1.67083 1.97789 1.43842C2.21536 1.20602 2.53524 1.07721 2.8675 1.08015ZM2.8675 11.8201C3.32436 11.8109 3.76832 11.6669 4.1437 11.4064C4.51908 11.1458 4.80918 10.7803 4.97761 10.3555C5.14604 9.9307 5.18531 9.46563 5.0905 9.01862C4.99568 8.57162 4.771 8.16254 4.44463 7.84272C4.11826 7.5229 3.70473 7.30657 3.25589 7.22083C2.80706 7.1351 2.3429 7.18378 1.92162 7.36079C1.50035 7.53779 1.14071 7.83524 0.887807 8.21583C0.634905 8.59641 0.499997 9.04318 0.500001 9.50013C0.506599 10.1216 0.759665 10.7151 1.20359 11.1501C1.64752 11.5851 2.24599 11.8261 2.8675 11.8201ZM2.8675 8.25513C3.11273 8.25957 3.35119 8.33631 3.55295 8.47578C3.75471 8.61525 3.91078 8.81122 4.00157 9.03907C4.09236 9.26692 4.11382 9.51653 4.06327 9.75654C4.01272 9.99654 3.89241 10.2163 3.71743 10.3881C3.54245 10.56 3.3206 10.6764 3.07973 10.7226C2.83886 10.7688 2.5897 10.7429 2.36351 10.6481C2.13732 10.5532 1.94419 10.3936 1.80836 10.1894C1.67253 9.98518 1.60004 9.7454 1.6 9.50013C1.60317 9.16701 1.73844 8.84875 1.97611 8.6153C2.21377 8.38186 2.53438 8.25234 2.8675 8.25513ZM2.8675 19.0001C3.32508 18.9914 3.76987 18.8476 4.14605 18.587C4.52223 18.3263 4.81303 17.9603 4.98196 17.535C5.15089 17.1096 5.19041 16.6439 5.09557 16.1962C5.00074 15.7484 4.77576 15.3387 4.44888 15.0184C4.122 14.6981 3.70779 14.4814 3.25824 14.3957C2.80868 14.31 2.34381 14.3589 1.92198 14.5364C1.50015 14.7139 1.14015 15.0121 0.887165 15.3935C0.634184 15.7749 0.499494 16.2225 0.500001 16.6801C0.507913 17.3012 0.761395 17.8939 1.20503 18.3286C1.64867 18.7634 2.24638 19.0048 2.8675 19.0001ZM2.8675 15.4301C3.11204 15.4349 3.34971 15.5118 3.55074 15.6511C3.75176 15.7904 3.9072 15.986 3.99757 16.2133C4.08794 16.4406 4.10923 16.6895 4.05876 16.9288C4.00828 17.1681 3.88831 17.3872 3.71385 17.5586C3.5394 17.73 3.31823 17.8462 3.07806 17.8925C2.8379 17.9387 2.58942 17.9131 2.36376 17.8187C2.1381 17.7244 1.9453 17.5656 1.80953 17.3621C1.67375 17.1587 1.60104 16.9197 1.6005 16.6751C1.60367 16.3421 1.73888 16.024 1.97643 15.7905C2.21398 15.5571 2.53446 15.4275 2.8675 15.4301ZM8.4025 2.86512H21.9475C22.0914 2.86512 22.2294 2.80798 22.3311 2.70625C22.4328 2.60451 22.49 2.46652 22.49 2.32264C22.49 2.17876 22.4328 2.04077 22.3311 1.93903C22.2294 1.8373 22.0914 1.78016 21.9475 1.78016H8.4C8.25612 1.78016 8.11814 1.8373 8.0164 1.93903C7.91466 2.04077 7.8575 2.17876 7.8575 2.32264C7.8575 2.46652 7.91466 2.60451 8.0164 2.70625C8.11814 2.80798 8.25612 2.86512 8.4 2.86512H8.4025ZM8.4025 10.0401H21.9475C22.0907 10.0401 22.2281 9.98324 22.3293 9.88197C22.4306 9.7807 22.4875 9.64335 22.4875 9.50013C22.4875 9.35691 22.4306 9.21956 22.3293 9.11829C22.2281 9.01702 22.0907 8.96015 21.9475 8.96015H8.4C8.25679 8.96015 8.11943 9.01702 8.01816 9.11829C7.91689 9.21956 7.86 9.35691 7.86 9.50013C7.86 9.64335 7.91689 9.7807 8.01816 9.88197C8.11943 9.98324 8.25679 10.0401 8.4 10.0401H8.4025ZM8.4025 17.2152H21.9475C22.0914 17.2152 22.2294 17.158 22.3311 17.0562C22.4328 16.9545 22.49 16.8165 22.49 16.6726C22.49 16.5287 22.4328 16.3907 22.3311 16.289C22.2294 16.1873 22.0914 16.1301 21.9475 16.1301H8.4C8.25612 16.1301 8.11814 16.1873 8.0164 16.289C7.91466 16.3907 7.8575 16.5287 7.8575 16.6726C7.8575 16.8165 7.91466 16.9545 8.0164 17.0562C8.11814 17.158 8.25612 17.2152 8.4 17.2152H8.4025Z" fill="white"/>
</svg>
