<svg width="23" height="21" viewBox="0 0 23 21" fill="none" xmlns="http://www.w3.org/2000/svg">
<path fill-rule="evenodd" clip-rule="evenodd" d="M9.72507 16.605C9.33854 16.6019 8.95981 16.7138 8.637 16.9264C8.31418 17.139 8.06184 17.4428 7.91202 17.7992C7.7622 18.1555 7.72165 18.5483 7.79553 18.9277C7.86942 19.3071 8.05441 19.656 8.327 19.9301C8.59958 20.2042 8.94747 20.391 9.32648 20.467C9.70549 20.5429 10.0985 20.5045 10.4557 20.3566C10.8128 20.2087 11.1179 19.958 11.3323 19.6363C11.5466 19.3147 11.6606 18.9366 11.6596 18.55C11.6608 18.0356 11.4577 17.5418 11.0949 17.1771C10.7322 16.8124 10.2395 16.6066 9.72507 16.605ZM9.72507 19.41C9.55475 19.4111 9.38794 19.3616 9.24579 19.2678C9.10364 19.174 8.99256 19.04 8.92662 18.883C8.86069 18.7259 8.84287 18.5528 8.87543 18.3857C8.90799 18.2185 8.98946 18.0647 9.10951 17.9439C9.22957 17.8231 9.38279 17.7406 9.54976 17.707C9.71673 17.6734 9.88993 17.69 10.0474 17.755C10.2049 17.8199 10.3395 17.9301 10.4343 18.0717C10.529 18.2132 10.5796 18.3797 10.5796 18.55C10.5801 18.7773 10.4904 18.9955 10.3302 19.1568C10.17 19.318 9.95236 19.4091 9.72507 19.41ZM16.5116 16.605C16.1251 16.602 15.7464 16.714 15.4236 16.9267C15.1009 17.1393 14.8486 17.4432 14.6989 17.7995C14.5491 18.1559 14.5087 18.5486 14.5826 18.928C14.6565 19.3074 14.8416 19.6563 15.1142 19.9303C15.3868 20.2043 15.7347 20.3911 16.1137 20.467C16.4927 20.5429 16.8857 20.5044 17.2428 20.3565C17.5999 20.2086 17.905 19.958 18.1193 19.6363C18.3336 19.3147 18.4476 18.9365 18.4466 18.55C18.4478 18.0355 18.2446 17.5416 17.8817 17.1769C17.5189 16.8122 17.026 16.6065 16.5116 16.605ZM16.5116 19.41C16.3412 19.4111 16.1744 19.3616 16.0323 19.2678C15.8901 19.174 15.7791 19.04 15.7131 18.883C15.6472 18.7259 15.6294 18.5528 15.6619 18.3857C15.6945 18.2185 15.776 18.0647 15.896 17.9439C16.0161 17.8231 16.1693 17.7406 16.3363 17.707C16.5032 17.6734 16.6764 17.69 16.8339 17.755C16.9914 17.8199 17.126 17.9301 17.2208 18.0717C17.3155 18.2132 17.3661 18.3797 17.3661 18.55C17.3666 18.7773 17.2769 18.9955 17.1167 19.1568C16.9565 19.318 16.7389 19.4091 16.5116 19.41ZM16.9881 6.345H9.24957C9.10503 6.345 8.96641 6.40246 8.8642 6.50467C8.76199 6.60688 8.70458 6.74551 8.70458 6.89005C8.70458 7.03459 8.76199 7.17322 8.8642 7.27542C8.96641 7.37763 9.10503 7.43503 9.24957 7.43503H16.9906C17.1351 7.4347 17.2736 7.37695 17.3756 7.27451C17.4776 7.17207 17.5347 7.03331 17.5343 6.88877C17.534 6.74422 17.4763 6.60573 17.3738 6.50376C17.2714 6.40178 17.1326 6.34467 16.9881 6.345ZM16.5666 9.17002H9.66658C9.52204 9.17002 9.38341 9.22748 9.28121 9.32968C9.179 9.43189 9.12157 9.57052 9.12157 9.71506C9.12157 9.8596 9.179 9.99823 9.28121 10.1004C9.38341 10.2026 9.52204 10.26 9.66658 10.26H16.5666C16.6381 10.26 16.709 10.2459 16.7751 10.2185C16.8413 10.1912 16.9013 10.151 16.952 10.1004C17.0026 10.0498 17.0427 9.98974 17.0701 9.92362C17.0975 9.85749 17.1116 9.78663 17.1116 9.71506C17.1116 9.64349 17.0975 9.57256 17.0701 9.50644C17.0427 9.44032 17.0026 9.38029 16.952 9.32968C16.9013 9.27908 16.8413 9.23891 16.7751 9.21152C16.709 9.18413 16.6381 9.17002 16.5666 9.17002ZM22.2576 3.92502C22.1571 3.79918 22.0298 3.69751 21.8848 3.62741C21.7399 3.55732 21.5811 3.52064 21.4201 3.52005H4.59407L4.25408 1.86002C4.21918 1.68996 4.1439 1.53079 4.03461 1.39591C3.92531 1.26103 3.7852 1.15445 3.62607 1.08506L1.25507 0.0450173C1.12336 -0.00709379 0.976528 -0.00581407 0.845735 0.0485574C0.714943 0.102929 0.61049 0.206153 0.554537 0.336277C0.498583 0.466401 0.495542 0.613186 0.546053 0.745518C0.596563 0.877849 0.696649 0.98527 0.825075 1.04502L3.19608 2.08005L5.80957 14.855C5.85918 15.0995 5.99144 15.3194 6.18411 15.4779C6.37679 15.6363 6.61813 15.7236 6.86757 15.725H19.8091C19.9536 15.725 20.0922 15.6676 20.1944 15.5654C20.2967 15.4632 20.3541 15.3246 20.3541 15.18C20.3541 15.0355 20.2967 14.8969 20.1944 14.7946C20.0922 14.6924 19.9536 14.635 19.8091 14.635H6.86807L6.55008 13.08H19.9091C20.1578 13.0787 20.3985 12.9921 20.5911 12.8347C20.7837 12.6773 20.9164 12.4586 20.9671 12.2151L22.4781 4.83005C22.5109 4.6723 22.5081 4.50919 22.47 4.35263C22.4318 4.19608 22.3593 4.05 22.2576 3.92502ZM19.9076 11.995H6.32758L4.81658 4.61002H21.4201L19.9076 11.995Z" fill="#546076"/>
</svg>
