<svg width="22" height="22" viewBox="0 0 45 44" fill="none" xmlns="http://www.w3.org/2000/svg">
<path fill-rule="evenodd" clip-rule="evenodd" d="M41.3068 6.59933e-06C40.5743 -0.00137657 39.8578 0.214694 39.2482 0.620856C38.6387 1.02702 38.1633 1.60495 37.8825 2.2815C37.6017 2.95805 37.528 3.70281 37.6708 4.42127C37.8136 5.13973 38.1664 5.79963 38.6846 6.31739C39.2028 6.83514 39.863 7.18739 40.5815 7.3296C41.3001 7.4718 42.0447 7.39747 42.7211 7.1161C43.3974 6.83472 43.975 6.35896 44.3806 5.74903C44.7863 5.1391 45.0018 4.42246 44.9998 3.68995C45.0001 3.20504 44.9047 2.72487 44.7192 2.27686C44.5336 1.82886 44.2616 1.42185 43.9186 1.07911C43.5755 0.736368 43.1683 0.464718 42.7201 0.279548C42.272 0.0943775 41.7917 -0.000650881 41.3068 6.59933e-06ZM41.3068 5.49C40.9508 5.49 40.6028 5.38444 40.3068 5.18665C40.0108 4.98887 39.7801 4.7077 39.6438 4.37879C39.5076 4.04988 39.4719 3.68804 39.5414 3.33887C39.6108 2.98971 39.7823 2.66898 40.034 2.41724C40.2858 2.16551 40.6065 1.99402 40.9556 1.92457C41.3048 1.85511 41.6667 1.89075 41.9956 2.02698C42.3245 2.16322 42.6057 2.39394 42.8035 2.68995C43.0012 2.98596 43.1068 3.33394 43.1068 3.68995C43.1076 3.92655 43.0616 4.16102 42.9714 4.37977C42.8812 4.59851 42.7487 4.7973 42.5814 4.96461C42.4141 5.13191 42.2153 5.26444 41.9966 5.35462C41.7778 5.4448 41.5434 5.49079 41.3068 5.49ZM4.6928 21.0501C3.96033 21.0489 3.24399 21.2651 2.63453 21.6714C2.02506 22.0777 1.5499 22.6557 1.26923 23.3323C0.988562 24.0088 0.915013 24.7534 1.05791 25.4718C1.20081 26.1902 1.55373 26.85 2.07195 27.3677C2.59017 27.8853 3.25036 28.2375 3.96891 28.3796C4.68746 28.5218 5.43204 28.4474 6.1083 28.166C6.78456 27.8846 7.36207 27.4089 7.76769 26.799C8.17331 26.1891 8.38878 25.4725 8.3868 24.74C8.3872 24.255 8.29189 23.7747 8.10634 23.3265C7.92079 22.8784 7.64865 22.4712 7.3055 22.1284C6.96235 21.7856 6.55493 21.514 6.1066 21.329C5.65827 21.1439 5.17782 21.0491 4.6928 21.0501ZM4.6928 26.54C4.33679 26.54 3.98879 26.4345 3.69278 26.2367C3.39678 26.0389 3.16606 25.7577 3.02982 25.4288C2.89358 25.0999 2.85794 24.738 2.92739 24.3888C2.99684 24.0396 3.16828 23.7189 3.42002 23.4672C3.67175 23.2154 3.99248 23.0441 4.34165 22.9746C4.69082 22.9052 5.05274 22.9408 5.38164 23.077C5.71055 23.2133 5.99167 23.444 6.18946 23.74C6.38724 24.036 6.4928 24.384 6.4928 24.74C6.49373 24.9766 6.4478 25.2111 6.35767 25.4299C6.26754 25.6487 6.13499 25.8476 5.96766 26.0149C5.80033 26.1822 5.60153 26.3148 5.38273 26.4049C5.16392 26.495 4.92944 26.541 4.6928 26.54ZM15.6708 10.07C14.9388 10.0688 14.2228 10.2848 13.6136 10.6907C13.0043 11.0965 12.5291 11.6739 12.2482 12.3499C11.9672 13.0258 11.8931 13.77 12.0352 14.4882C12.1773 15.2063 12.5292 15.8661 13.0464 16.3842C13.5636 16.9022 14.2229 17.2552 14.9408 17.3984C15.6587 17.5417 16.4029 17.4688 17.0794 17.189C17.7558 16.9091 18.334 16.4348 18.7408 15.8262C19.1476 15.2176 19.3648 14.5021 19.3648 13.77C19.3661 13.2843 19.2715 12.803 19.0864 12.3539C18.9013 11.9048 18.6294 11.4966 18.2862 11.1528C17.943 10.8091 17.5353 10.5365 17.0864 10.3507C16.6376 10.1649 16.1566 10.0694 15.6708 10.07ZM15.6708 15.5601C15.3144 15.5601 14.966 15.4542 14.6697 15.256C14.3735 15.0578 14.1428 14.776 14.0069 14.4465C13.8709 14.117 13.8359 13.7546 13.9062 13.4052C13.9764 13.0557 14.1488 12.735 14.4016 12.4836C14.6543 12.2323 14.976 12.0617 15.3258 11.9934C15.6756 11.9251 16.0379 11.9621 16.3666 12.0999C16.6953 12.2376 16.9757 12.4699 17.1723 12.7672C17.3689 13.0645 17.4728 13.4136 17.4708 13.77C17.4707 14.0059 17.424 14.2394 17.3333 14.4572C17.2427 14.6749 17.11 14.8726 16.9427 15.0389C16.7755 15.2053 16.577 15.337 16.3587 15.4264C16.1405 15.5158 15.9067 15.5613 15.6708 15.5601ZM23.4518 17.85C22.7198 17.8488 22.0038 18.0649 21.3946 18.4707C20.7853 18.8765 20.3101 19.4539 20.0292 20.1299C19.7482 20.8059 19.6741 21.5501 19.8162 22.2682C19.9583 22.9863 20.3102 23.6461 20.8274 24.1642C21.3446 24.6822 22.0039 25.0352 22.7218 25.1785C23.4397 25.3217 24.1839 25.2487 24.8603 24.9689C25.5368 24.689 26.115 24.2148 26.5218 23.6062C26.9287 22.9976 27.1458 22.2821 27.1458 21.5501C27.1471 21.0643 27.0525 20.583 26.8674 20.1339C26.6823 19.6848 26.4104 19.2766 26.0672 18.9329C25.724 18.5891 25.3163 18.3166 24.8675 18.1307C24.4186 17.9449 23.9376 17.8495 23.4518 17.85ZM23.4518 23.34C23.0954 23.34 22.747 23.2341 22.4508 23.0359C22.1545 22.8377 21.9238 22.5559 21.7879 22.2264C21.652 21.897 21.6169 21.5346 21.6872 21.1852C21.7574 20.8358 21.9299 20.515 22.1826 20.2637C22.4353 20.0123 22.757 19.8416 23.1068 19.7733C23.4566 19.705 23.8189 19.7421 24.1476 19.8799C24.4763 20.0177 24.7568 20.2499 24.9533 20.5472C25.1499 20.8446 25.2538 21.1936 25.2518 21.5501C25.2517 21.7859 25.205 22.0194 25.1143 22.2372C25.0237 22.455 24.891 22.6527 24.7237 22.819C24.5564 22.9853 24.358 23.1169 24.1397 23.2063C23.9215 23.2957 23.6877 23.3412 23.4518 23.34ZM24.7278 18.9301L38.6808 4.94996L40.0238 6.29005L26.0708 20.27L24.7278 18.9301ZM16.9488 16.38L18.2878 15.03L22.1968 18.9301L20.8578 20.27L16.9488 16.38ZM5.97181 22.12L13.0628 15.03L14.4048 16.37L7.3138 23.47L5.97181 22.12ZM1.02881 42.1H44.9708V44H1.02881V42.1ZM40.3578 15.59H42.2578V43.0501H40.3578V15.59ZM22.9708 29.33H24.8708V43.0501H22.9708V29.33ZM3.74381 32.07H5.6438V43.0501H3.74381V32.07ZM14.7228 23.82H16.6228V43.0501H14.7228V23.82Z" fill="#546076"/>
</svg>
