<svg width="23" height="23" viewBox="0 0 23 23" fill="none" xmlns="http://www.w3.org/2000/svg">
<path fill-rule="evenodd" clip-rule="evenodd" d="M21.5195 9.375C21.1055 9.315 20.681 9.25501 20.257 9.20001C20.2328 9.19609 20.2101 9.1856 20.1914 9.16974C20.1728 9.15388 20.1588 9.13322 20.151 9.10999C19.9552 8.39924 19.6717 7.71567 19.307 7.07501C19.2949 7.0531 19.2896 7.02809 19.2917 7.00317C19.2939 6.97826 19.3034 6.95453 19.319 6.935C19.5795 6.595 19.838 6.25498 20.087 5.91498C20.2494 5.69224 20.3271 5.41897 20.3063 5.1441C20.2855 4.86924 20.1675 4.61075 19.9735 4.41498L18.583 3.02502C18.3872 2.83076 18.1284 2.71286 17.8533 2.69269C17.5782 2.67252 17.305 2.75135 17.083 2.91498C16.747 3.15998 16.4045 3.41999 16.065 3.67999C16.0458 3.6956 16.0225 3.70535 15.9979 3.70801C15.9733 3.71067 15.9486 3.70615 15.9265 3.69501C15.2856 3.32971 14.6017 3.04582 13.8905 2.84998C13.8671 2.84282 13.8464 2.82916 13.8306 2.81055C13.8148 2.79194 13.8047 2.76918 13.8015 2.745C13.746 2.32 13.687 1.89498 13.625 1.47998C13.5826 1.20754 13.4444 0.959186 13.2352 0.779541C13.0261 0.599896 12.7597 0.500771 12.484 0.5H10.517C10.2413 0.500771 9.97487 0.599896 9.76572 0.779541C9.55656 0.959186 9.41836 1.20754 9.37598 1.47998C9.31398 1.89498 9.25496 2.32 9.19946 2.745C9.19617 2.76916 9.18606 2.79188 9.17029 2.81049C9.15452 2.82909 9.13377 2.84277 9.11047 2.84998C8.39929 3.04582 7.71532 3.32971 7.07446 3.69501C7.05239 3.70615 7.02757 3.71067 7.00299 3.70801C6.97841 3.70535 6.95515 3.6956 6.93597 3.67999C6.59647 3.41999 6.25397 3.15998 5.91797 2.91498C5.69593 2.75135 5.42272 2.67252 5.14764 2.69269C4.87257 2.71286 4.61376 2.83076 4.41797 3.02502L3.02747 4.41498C2.8333 4.61172 2.71531 4.87103 2.69452 5.14667C2.67373 5.4223 2.75151 5.69635 2.91397 5.91998C3.16397 6.25498 3.42198 6.595 3.68198 6.935C3.69747 6.95459 3.70685 6.97828 3.70898 7.00317C3.71112 7.02806 3.7059 7.05307 3.69397 7.07501C3.32944 7.71577 3.04594 8.39932 2.84998 9.10999C2.84218 9.13322 2.82819 9.15388 2.80951 9.16974C2.79083 9.1856 2.76815 9.19609 2.74396 9.20001C2.32046 9.25501 1.89396 9.315 1.48196 9.375C1.20977 9.41771 0.961638 9.55586 0.781921 9.76471C0.602205 9.97355 0.502629 10.2395 0.500977 10.515V12.485C0.50261 12.7604 0.602122 13.0263 0.781738 13.2352C0.961354 13.444 1.20937 13.5822 1.48148 13.625C1.89548 13.685 2.32046 13.745 2.74396 13.8C2.76815 13.8039 2.79083 13.8144 2.80951 13.8303C2.82819 13.8461 2.84218 13.8668 2.84998 13.89C3.04573 14.6008 3.32924 15.2843 3.69397 15.925C3.7059 15.9469 3.71112 15.9719 3.70898 15.9968C3.70685 16.0217 3.69747 16.0454 3.68198 16.065C3.42098 16.405 3.16297 16.745 2.91397 17.085C2.75158 17.3078 2.67381 17.581 2.69461 17.8559C2.71541 18.1308 2.83341 18.3893 3.02747 18.585L4.41797 19.975C4.61376 20.1692 4.87257 20.2871 5.14764 20.3073C5.42272 20.3275 5.69593 20.2486 5.91797 20.085C6.25397 19.84 6.59647 19.58 6.93597 19.32C6.95515 19.3044 6.97841 19.2947 7.00299 19.292C7.02757 19.2893 7.05239 19.2939 7.07446 19.305C7.71532 19.6703 8.39929 19.9542 9.11047 20.15C9.13377 20.1572 9.15452 20.1709 9.17029 20.1895C9.18606 20.2081 9.19617 20.2308 9.19946 20.255C9.25496 20.68 9.31398 21.105 9.37598 21.52C9.41836 21.7925 9.55656 22.0408 9.76572 22.2205C9.97487 22.4001 10.2413 22.4992 10.517 22.5H12.484C12.7597 22.4992 13.0261 22.4001 13.2352 22.2205C13.4444 22.0408 13.5826 21.7925 13.625 21.52C13.687 21.105 13.746 20.68 13.8015 20.255C13.8047 20.2308 13.8148 20.2081 13.8306 20.1895C13.8464 20.1708 13.8671 20.1572 13.8905 20.15C14.6017 19.9542 15.2856 19.6703 15.9265 19.305C15.9486 19.2939 15.9733 19.2893 15.9979 19.292C16.0225 19.2947 16.0458 19.3044 16.065 19.32C16.4045 19.58 16.747 19.84 17.083 20.085C17.305 20.2486 17.5782 20.3275 17.8533 20.3073C18.1284 20.2871 18.3872 20.1692 18.583 19.975L19.9735 18.585C20.1676 18.3883 20.2856 18.129 20.3064 17.8533C20.3272 17.5777 20.2494 17.3037 20.087 17.08C19.837 16.745 19.5795 16.405 19.319 16.065C19.3034 16.0455 19.2939 16.0217 19.2917 15.9968C19.2896 15.9719 19.2949 15.9469 19.307 15.925C19.6715 15.2842 19.955 14.6007 20.151 13.89C20.1579 13.8663 20.1717 13.8451 20.1905 13.8291C20.2093 13.8131 20.2324 13.803 20.257 13.8C20.6805 13.745 21.107 13.685 21.519 13.625C21.7912 13.5823 22.0393 13.4441 22.219 13.2353C22.3987 13.0264 22.4983 12.7605 22.5 12.485V10.515C22.4983 10.2396 22.3988 9.97367 22.2192 9.76483C22.0396 9.556 21.7916 9.41782 21.5195 9.375ZM21.4725 12.485C21.4722 12.5148 21.4615 12.5435 21.4424 12.5663C21.4232 12.5891 21.3967 12.6045 21.3675 12.61C20.96 12.67 20.5415 12.73 20.124 12.785C19.8994 12.8128 19.6881 12.9066 19.5167 13.0543C19.3452 13.202 19.2213 13.397 19.1605 13.615C18.9868 14.2451 18.7361 14.8513 18.414 15.42C18.3019 15.6169 18.2507 15.8427 18.2668 16.0687C18.2829 16.2948 18.3656 16.5109 18.5045 16.69C18.7615 17.025 19.016 17.36 19.261 17.695C19.2784 17.7189 19.2866 17.7482 19.284 17.7776C19.2815 17.8071 19.2683 17.8345 19.247 17.855L17.8565 19.245C17.8355 19.2664 17.8076 19.2797 17.7777 19.2824C17.7479 19.2852 17.718 19.2772 17.6935 19.26C17.3625 19.015 17.0255 18.76 16.6935 18.505C16.5139 18.3661 16.2973 18.2834 16.0708 18.2674C15.8444 18.2514 15.6183 18.3027 15.421 18.415C14.8532 18.735 14.2488 18.9851 13.621 19.16C13.4022 19.2205 13.2062 19.3444 13.0576 19.5162C12.9091 19.6879 12.8148 19.8997 12.7865 20.125C12.732 20.54 12.6735 20.96 12.6125 21.365C12.6086 21.3954 12.5937 21.4234 12.5707 21.4436C12.5477 21.4639 12.5181 21.475 12.4875 21.475H10.5205C10.4898 21.475 10.4602 21.4639 10.4372 21.4436C10.4142 21.4234 10.3994 21.3954 10.3955 21.365C10.3345 20.96 10.276 20.54 10.2215 20.125C10.1932 19.8997 10.0988 19.6879 9.95032 19.5162C9.80181 19.3444 9.60578 19.2205 9.38696 19.16C8.75837 18.9873 8.15373 18.7371 7.58698 18.415C7.38967 18.3027 7.16355 18.2514 6.9371 18.2674C6.71066 18.2834 6.49402 18.3661 6.31448 18.505C5.97998 18.76 5.64298 19.015 5.31448 19.26C5.28994 19.2772 5.26008 19.2852 5.23022 19.2824C5.20037 19.2797 5.17244 19.2664 5.15146 19.245L3.76096 17.855C3.73965 17.8345 3.72651 17.8071 3.72394 17.7776C3.72136 17.7482 3.72955 17.7189 3.74698 17.695C3.99198 17.365 4.24698 17.025 4.50348 16.69C4.64233 16.5109 4.72501 16.2948 4.74112 16.0687C4.75723 15.8427 4.70601 15.6169 4.59396 15.42C4.27188 14.8513 4.02117 14.2451 3.84747 13.615C3.78666 13.397 3.66272 13.202 3.49127 13.0543C3.31983 12.9066 3.10854 12.8128 2.88397 12.785C2.46647 12.73 2.04847 12.67 1.64047 12.61C1.6112 12.6045 1.58473 12.5891 1.56558 12.5663C1.54643 12.5435 1.53577 12.5148 1.53546 12.485V10.515C1.53577 10.4852 1.54643 10.4565 1.56558 10.4337C1.58473 10.4109 1.6112 10.3955 1.64047 10.39C2.04847 10.33 2.46647 10.27 2.88397 10.22C3.10903 10.1913 3.32059 10.0968 3.49203 9.94824C3.66348 9.79966 3.78714 9.60371 3.84747 9.38501C4.02093 8.75486 4.27166 8.1486 4.59396 7.58002C4.70601 7.38306 4.75723 7.1573 4.74112 6.93127C4.72501 6.70525 4.64233 6.48907 4.50348 6.31C4.24698 5.975 3.99248 5.63999 3.74698 5.30499C3.72975 5.28107 3.72167 5.25178 3.72424 5.22241C3.72681 5.19305 3.73984 5.16559 3.76096 5.14502L5.15146 3.755C5.17244 3.7336 5.20037 3.72034 5.23022 3.71759C5.26008 3.71484 5.28994 3.72277 5.31448 3.73999C5.64498 3.98499 5.98248 4.24 6.31448 4.495C6.49402 4.63392 6.71066 4.71659 6.9371 4.7326C7.16355 4.74862 7.38967 4.69729 7.58698 4.58502C8.15474 4.26503 8.75912 4.01488 9.38696 3.84003C9.60578 3.77951 9.80181 3.65555 9.95032 3.48383C10.0988 3.3121 10.1932 3.10026 10.2215 2.875C10.276 2.46 10.3345 2.04001 10.3955 1.63501C10.4002 1.60499 10.4153 1.57758 10.4381 1.5575C10.461 1.53741 10.4901 1.52593 10.5205 1.52502H12.4875C12.5178 1.52593 12.547 1.53741 12.5698 1.5575C12.5926 1.57758 12.6077 1.60499 12.6125 1.63501C12.6735 2.04001 12.732 2.46 12.7865 2.875C12.8148 3.10026 12.9091 3.3121 13.0576 3.48383C13.2062 3.65555 13.4022 3.77951 13.621 3.84003C14.2488 4.01501 14.8531 4.26514 15.421 4.58502C15.6181 4.69757 15.8442 4.74905 16.0706 4.73303C16.2971 4.71701 16.5136 4.63418 16.693 4.495C17.0275 4.24 17.365 3.98499 17.693 3.73999C17.7175 3.72277 17.7474 3.71484 17.7772 3.71759C17.8071 3.72034 17.835 3.7336 17.856 3.755L19.2465 5.14502C19.2678 5.16548 19.2809 5.19293 19.2835 5.22235C19.2861 5.25178 19.2779 5.28115 19.2605 5.30499C19.0155 5.63999 18.7605 5.975 18.504 6.31C18.3655 6.48924 18.283 6.7054 18.2669 6.93134C18.2508 7.15727 18.3018 7.38295 18.4135 7.58002C18.7358 8.1486 18.9865 8.75486 19.16 9.38501C19.2214 9.60311 19.3454 9.79844 19.5167 9.94684C19.6879 10.0952 19.8989 10.1902 20.1235 10.22C20.541 10.27 20.9595 10.33 21.367 10.39C21.3963 10.3954 21.4228 10.4109 21.4421 10.4337C21.4613 10.4564 21.472 10.4852 21.4725 10.515V12.485ZM11.5 6.72498C10.5556 6.72507 9.63244 7.00522 8.84726 7.52997C8.06208 8.05471 7.45014 8.80051 7.08881 9.67303C6.72747 10.5456 6.63299 11.5057 6.81729 12.4319C7.00159 13.3581 7.45639 14.2088 8.12421 14.8766C8.79202 15.5443 9.64285 15.9991 10.5691 16.1833C11.4953 16.3675 12.4554 16.2729 13.3279 15.9115C14.2004 15.5501 14.9461 14.938 15.4708 14.1528C15.9954 13.3675 16.2755 12.4444 16.2755 11.5C16.2743 10.2339 15.7707 9.01994 14.8754 8.12469C13.9801 7.22945 12.7661 6.72603 11.5 6.72498ZM11.5 15.25C10.7583 15.25 10.0333 15.03 9.4166 14.618C8.79991 14.2059 8.31926 13.6203 8.03543 12.9351C7.7516 12.2498 7.67733 11.4959 7.82202 10.7684C7.96672 10.041 8.32388 9.37277 8.84833 8.84833C9.37277 8.32388 10.0409 7.96678 10.7684 7.82208C11.4958 7.67739 12.2498 7.75163 12.935 8.03546C13.6203 8.31929 14.2059 8.79994 14.618 9.41663C15.03 10.0333 15.25 10.7583 15.25 11.5C15.2486 12.4942 14.8531 13.4472 14.1501 14.1502C13.4472 14.8532 12.4941 15.2487 11.5 15.25Z" fill="#546076"/>
</svg>
