<svg width="32" height="35" viewBox="0 0 32 35" fill="none" xmlns="http://www.w3.org/2000/svg">
<path fill-rule="evenodd" clip-rule="evenodd" d="M6.51593 6.94008C8.98563 4.71047 12.1709 3.43688 15.4969 3.34905C18.823 3.26121 22.071 4.36492 24.655 6.46108L20.5029 6.61807C20.247 6.62271 20.0034 6.72884 19.8257 6.91309C19.648 7.09735 19.5508 7.34464 19.5554 7.60058C19.5601 7.85651 19.6662 8.10012 19.8505 8.27781C20.0347 8.4555 20.282 8.55271 20.538 8.54807H20.5739L26.9489 8.31207C27.1987 8.30325 27.4353 8.19764 27.6087 8.01756C27.7821 7.83747 27.8786 7.59704 27.8779 7.34708V7.23308L27.642 0.933075C27.6372 0.806415 27.6076 0.681929 27.5547 0.566719C27.5019 0.45151 27.4269 0.347835 27.334 0.261616C27.2411 0.175397 27.1321 0.10832 27.0133 0.0642169C26.8945 0.020114 26.7681 -0.000149621 26.6414 0.00457797C26.5148 0.00930555 26.3903 0.0389321 26.2751 0.0917705C26.1599 0.144609 26.0562 0.219622 25.97 0.312527C25.8837 0.405432 25.8167 0.514409 25.7726 0.633236C25.7285 0.752064 25.7082 0.878418 25.7129 1.00508L25.8629 4.95808C22.922 2.57284 19.2251 1.31796 15.4399 1.42011C11.6548 1.52225 8.03091 2.9747 5.22296 5.51508C3.10431 7.43241 1.54238 9.886 0.701963 12.617C-0.138451 15.3481 -0.22622 18.2553 0.447935 21.0321C0.498717 21.2422 0.618764 21.4291 0.788755 21.5626C0.958746 21.6961 1.16878 21.7685 1.38495 21.7681C1.46192 21.769 1.53863 21.7593 1.61291 21.7391C1.861 21.678 2.07483 21.5211 2.20752 21.3028C2.34021 21.0844 2.38096 20.8224 2.32092 20.5741C1.72802 18.1343 1.80485 15.5798 2.54321 13.1801C3.28157 10.7804 4.65408 8.62452 6.51593 6.94008ZM31.5519 13.9731C31.4898 13.7264 31.3327 13.5142 31.1147 13.3829C30.8968 13.2516 30.6358 13.2117 30.3886 13.272C30.1414 13.3323 29.9282 13.4879 29.7952 13.7048C29.6623 13.9218 29.6205 14.1825 29.679 14.4301C30.3686 17.277 30.1441 20.2687 29.0373 22.9808C27.9305 25.6929 25.9975 27.9874 23.5128 29.5388C21.0281 31.0902 18.118 31.8195 15.1953 31.6234C12.2727 31.4272 9.48605 30.3155 7.23096 28.4461L11.431 28.0671C11.686 28.0433 11.9211 27.9193 12.0846 27.7222C12.2481 27.5251 12.3267 27.2711 12.3029 27.0161C12.2792 26.7611 12.1551 26.5259 11.958 26.3624C11.7609 26.1989 11.507 26.1203 11.252 26.1441L4.89892 26.7161C4.77258 26.7276 4.64974 26.764 4.53747 26.8231C4.42521 26.8822 4.32576 26.9629 4.24475 27.0605C4.16374 27.1582 4.1028 27.2709 4.06543 27.3921C4.02805 27.5133 4.01494 27.6408 4.02691 27.7671L4.59894 34.1211C4.61991 34.3606 4.72976 34.5837 4.90686 34.7463C5.08395 34.909 5.31551 34.9995 5.55597 35.0001C5.58481 35.0013 5.6137 34.999 5.64197 34.9931C5.76831 34.9815 5.89109 34.9452 6.00336 34.8861C6.11562 34.8269 6.21513 34.7463 6.29614 34.6486C6.37715 34.551 6.43809 34.4383 6.47546 34.3171C6.51284 34.1958 6.52589 34.0684 6.51391 33.9421L6.17096 30.0751C8.77757 32.186 11.9896 33.4103 15.34 33.5701C15.612 33.5841 15.8839 33.5911 16.1479 33.5911C18.5493 33.5881 20.9187 33.0403 23.0777 31.9889C25.2367 30.9375 27.1289 29.4099 28.6119 27.5212C30.0949 25.6324 31.13 23.4318 31.6393 21.0851C32.1485 18.7383 32.1187 16.3066 31.5519 13.9731Z" fill="#546076"/>
</svg>
